<?xml version="1.0" encoding="UTF-8" standalone="no"?>
<!DOCTYPE svg PUBLIC "-//W3C//DTD SVG 1.1//EN" "http://www.w3.org/Graphics/SVG/1.1/DTD/svg11.dtd">
<svg xmlns="http://www.w3.org/2000/svg" version="1.1" viewBox="80 100 340 300" height="64px" width="90px" preserveAspectRatio="none">
<path fill="#fe4e01" d="M 289.1 213.8 Q 282.8 206.5 273.8 198.1 L 238.3 162.4 A 1.8 1.8 -45.1 0 0 235.7 162.4 L 198.4 200.1 L 183.9 214.4 Q 169.4 229 154.8 243.5 C 151.7 246.7 128.5 245.5 123.1 245.4 A 0.5 0.5 0 0 1 122.7 244.5 L 236.6 131.4 A 0.6 0.6 0 0 1 237.4 131.4 Q 311.2 204.5 384.7 277.9 C 385.4 278.7 387.3 279.6 387.9 281.1 Q 388.1 281.7 387.4 281.7 Q 376.7 281.5 360 281.8 Q 357.6 281.9 355.7 280 Q 328.1 252.5 300.6 224.9 Q 292.3 216.7 289.1 213.8 Z"
/>
<path fill="#016ab8" d="M 273.8 198.1 Q 282.8 206.5 289.1 213.8 L 289 280.3 A 1.6 1.6 0 0 1 287.4 281.9 L 183.5 281.7 A 0.3 0.3 1 0 1 183.2 281.4 Q 183.3 251.3 183.3 222.5 C 183.2 219.9 183.8 217.2 183.9 214.4 L 198.4 200.1 L 198.4 266.2 A 0.6 0.6 0 0 0 199 266.7 L 272.8 266.8 Q 273.5 266.8 273.5 266.1 L 273.8 198.1 Z"
/>
<path fill="#fe4e01" d="M 97.3 319.5 Q 97.7 321.8 98.5 319.6 C 100.1 315.5 110.6 285.4 112.5 284.5 A 0.8 0.8 77.4 0 1 113.6 285.2 L 113.7 333 Q 113.7 333.5 113.2 333.8 Q 111.4 334.8 109.5 334 Q 109 333.8 109 333.3 C 109 330.7 109.5 308.4 108.8 308.1 A 0.8 0.8 21.1 0 0 107.7 308.6 L 98.8 333.1 Q 98.6 333.6 98.1 333.9 Q 95.9 334.9 93.7 334.2 Q 93.2 334 93.1 333.4 C 92.5 325.7 92.9 316.1 92.9 310.4 Q 92.7 299.3 92.7 288.2 C 92.7 287.1 91.6 285 93.8 284.5 Q 95.6 284.1 97.3 284.8 Q 97.8 285 97.8 285.5 C 97.8 295 98.4 305.3 97.4 314.6 Q 97.1 317.3 97.3 319.5 Z"
/>
<path fill="#fe4e01" d="M 298.5 334.7 C 266.6 332.1 268.1 284.5 300.3 284.2 A 1.3 1.3 2.7 0 1 301.5 285.6 L 301.3 288.1 Q 301.2 288.7 300.6 288.8 C 272.4 290.5 272.7 329.1 300 330 Q 301.6 330 301.6 331.6 Q 301.5 335 298.5 334.7 Z"
/>
<path fill="#fe4e01" d="M 399.1 293.1 A 0.2 0.2 0 0 1 398.8 293.1 L 398.3 292.7 A 4.2 2.5 -53.8 0 1 398.8 287.8 L 399 287.5 A 4.2 2.5 -53.8 0 1 403.5 285.6 L 404.1 286 A 0.2 0.2 0 0 1 404.1 286.3 L 399.1 293.1 Z"
/>
<path fill="#fe4e01" d="M 133.9 304.2 L 134 294.7 Q 134 293.9 134.8 293.7 Q 136.8 293.3 137.6 294.2 C 139.1 295.7 138.3 328.4 138.3 332.9 Q 138.3 333.6 137.8 333.9 Q 136.4 334.9 134.8 334.4 A 1 1 8.3 0 1 134.1 333.5 Q 133.9 324.3 133.7 315.2 C 133.7 313.8 134.4 311.8 134.1 310 Q 134 309.6 133.6 309.6 L 126.5 309.4 A 1.1 1.1 0 0 0 125.4 310.4 C 125.7 317.1 126.8 327 125.5 333.6 Q 125.3 334.2 124.7 334.2 L 122 334.3 A 1.3 1.3 89.3 0 1 120.7 333 L 120.8 294.8 Q 120.8 293.8 121.8 293.8 L 124.8 293.8 A 0.7 0.7 0 0 1 125.5 294.4 L 125.8 303.9 A 0.9 0.9 0 0 0 126.7 304.8 L 133.3 304.8 Q 133.9 304.8 133.9 304.2 Z"
/>
<path fill="#fe4e01" d="M 165.8 320.3 L 165.8 333.3 Q 165.8 333.9 165.2 334.1 Q 163.6 334.7 162 333.9 Q 161.5 333.6 161.5 333 Q 161.5 326.3 161.5 319.6 A 0.4 0.4 0 0 0 160.9 319.4 C 156.9 323.8 153.1 328.6 148.9 332.9 C 147.4 334.5 145.5 334.8 143.6 334.1 A 0.7 0.7 30.5 0 1 143.3 333 L 159.7 313.4 A 0.7 0.6 -45.4 0 0 159.7 312.6 L 145.3 295.2 Q 144.5 294.3 145.7 293.9 Q 149.3 293 152 296.3 Q 156.2 301.6 160.4 306.5 A 0.6 0.6 0 0 0 161.5 306.1 L 161.5 294.8 A 0.8 0.8 -2.8 0 1 162.2 294 L 164.9 293.7 Q 165.7 293.6 165.7 294.4 Q 165.9 300.3 165.5 306.2 A 0.8 0.8 0 0 0 166.9 306.8 Q 171.7 300.9 176 295.9 C 177.8 293.9 179.7 293.2 182.2 293.9 A 0.6 0.6 0 0 1 182.5 294.9 L 167.7 312.5 Q 167.2 313 167.8 313.7 L 184.3 333 A 0.8 0.8 0 0 1 183.8 334.4 Q 180.5 335.2 178.2 332.6 Q 173 326.7 167.2 319.7 A 0.8 0.8 0 0 0 165.8 320.3 Z"
/>
<path fill="#fe4e01" d="M 192.6 329.7 L 203.9 329.8 A 0.9 0.9 0 0 1 204.8 330.6 L 205.2 333.3 A 0.9 0.9 0 0 1 204.3 334.4 L 188.1 334.2 A 0.9 0.9 0 0 1 187.2 333.3 L 187.2 294.7 A 0.9 0.9 0 0 1 188.1 293.8 L 203.8 293.8 A 0.9 0.9 0 0 1 204.7 294.6 L 204.8 297.4 A 0.9 0.9 0 0 1 203.8 298.4 L 192.5 298.4 A 0.9 0.9 0 0 0 191.6 299.3 L 191.5 303.8 A 0.9 0.9 0 0 0 192.4 304.8 L 200.8 304.8 A 0.9 0.9 0 0 1 201.7 305.7 L 201.6 308.4 A 0.9 0.9 0 0 1 200.7 309.3 L 192.4 309.5 A 0.9 0.9 0 0 0 191.5 310.4 L 191.6 328.8 A 0.9 0.9 0 0 0 192.6 329.7 Z"
/>
<path fill="#fe4e01" d="M 221.8 304.3 L 221.8 294.4 A 0.6 0.6 -90 0 1 222.4 293.8 L 225.2 293.8 A 1.3 1.3 0 0 1 226.5 295 L 226.5 333.5 A 0.7 0.7 87.9 0 1 225.8 334.2 L 222.7 334.4 Q 221.9 334.5 221.9 333.7 L 221.9 309.9 Q 221.9 309.2 221.2 309.2 L 214.4 309.4 Q 213.8 309.4 213.8 310.1 L 213.8 333 A 1 1 0 0 1 213.3 333.8 Q 211.6 335 209.7 334.2 Q 209.3 334 209.3 333.5 Q 209.3 314 209.3 294.4 Q 209.3 293.9 209.7 293.9 L 212.7 293.7 Q 213.3 293.7 213.4 294.3 Q 214.1 299.3 213.6 304.3 A 0.4 0.4 0 0 0 214 304.8 L 221.3 304.8 Q 221.8 304.8 221.8 304.3 Z"
/>
<path fill="#fe4e01" d="M 237.5 309.7 L 237.5 328.7 A 1 1 0 0 0 238.5 329.8 L 250.2 329.8 Q 250.9 329.8 250.9 330.4 L 251 333.6 Q 251 334.3 250.3 334.3 C 246.9 334.4 235.8 335.1 233.3 333.9 Q 232.7 333.7 232.7 333 L 233 294.4 Q 233 293.9 233.6 293.9 L 250.1 293.7 A 0.6 0.6 -0.5 0 1 250.7 294.3 L 250.8 297.7 Q 250.8 298.4 250.1 298.4 L 239.3 298.3 Q 237.5 298.3 237.5 300.1 L 237.5 304 Q 237.5 304.7 238.2 304.7 L 247.2 304.8 Q 247.8 304.8 247.8 305.4 L 247.8 308.5 Q 247.8 309 247.2 309.1 Q 242.7 309.8 238.1 309.2 A 0.5 0.5 0 0 0 237.5 309.7 Z"
/>
<path fill="#fe4e01" d="M 256.5 294.2 C 263.5 292.4 270.7 297.5 271.9 304.4 C 273.6 314 268.4 318.9 260 321.5 Q 259.5 321.7 259.5 322.2 L 259.5 333.5 A 0.7 0.7 0.4 0 1 258.8 334.2 L 255.4 334.2 A 0.7 0.7 0 0 1 254.7 333.4 C 255.4 318.7 254.5 308.1 255.3 295.6 A 1.6 1.6 -5.3 0 1 256.5 294.2 Z M 259.5 298.4 L 259.5 316.8 A 0 0 0 0 0 259.6 316.8 L 259.6 316.8 A 9.1 8.5 -90 0 0 268.1 307.7 L 268.1 307.4 A 9.1 8.5 90 0 0 259.6 298.4 L 259.6 298.4 A 0 0 0 0 0 259.5 298.4 Z"
/>
<path fill="#fe4e01" d="M 303.8 298.5 A 1.5 1.5 0 0 1 302.2 296.6 L 302.8 294.4 Q 302.9 293.8 303.5 293.8 L 319.6 293.8 Q 320.2 293.8 320.3 294.4 L 320.6 297.6 Q 320.6 298.3 319.9 298.3 L 314.7 298.3 A 0.8 0.8 0 0 0 313.9 299 L 314 333 Q 314 333.5 313.6 333.8 Q 312 335.1 309.9 334.2 A 0.8 0.8 11.6 0 1 309.4 333.4 L 309.5 298.8 A 0.6 0.6 0 0 0 308.9 298.2 L 303.8 298.5 Z"
/>
<path fill="#fe4e01" d="M 326.1 294 C 334.2 292.9 343 300.9 341.5 309.2 Q 339.9 318.1 330.3 321.3 C 327.9 322.1 329.1 331.2 328.9 333.5 Q 328.9 334.1 328.3 334.1 L 324.9 334.2 Q 324.3 334.2 324.3 333.6 L 324.4 295.9 A 2 2 0 0 1 326.1 294 Z M 336.7 310.6 C 339.3 304.8 335.2 301.3 330.7 298.6 A 1.2 1.2 15.4 0 0 328.9 299.6 L 328.9 315.8 A 1.2 1.2 0 0 0 330.6 316.9 Q 335 314.5 336.7 310.6 Z"
/>
<path fill="#fe4e01" d="M 384.6 314.2 A 20.4 20.4 0 0 1 364.2 334.6 A 20.4 20.4 0 0 1 343.8 314.2 A 20.4 20.4 0 0 1 364.2 293.8 A 20.4 20.4 0 0 1 384.6 314.2 Z M 380.2 314.2 A 16 16 0 0 0 364.1 298.1 A 16 16 0 0 0 348.1 314.2 A 16 16 0 0 0 364.1 330.2 A 16 16 0 0 0 380.2 314.2 Z"
/>
<path fill="#fe4e01" d="M 401.5 316 A 0.4 0.4 0 0 0 400.7 315.9 Q 398 324.4 394.6 332.3 C 393.7 334.4 392.1 335 390 334.2 Q 389.5 334.1 389.4 333.6 Q 388.9 332.3 388.9 331 Q 389 312.8 389 294.7 Q 389 294.1 389.6 294 L 392.5 293.7 Q 393 293.6 393.2 294.1 Q 393.8 296 393.8 297 Q 393.6 308.5 393.5 319.8 A 0.6 0.6 0 0 0 394.7 319.9 Q 398.9 307.8 403.5 295.8 Q 404.6 293.1 405.9 294.9 Q 406.4 295.4 406.4 296.1 L 406.3 333.7 Q 406.3 334.4 405.6 334.4 L 402.5 334.4 A 0.7 0.7 0 0 1 401.8 333.7 L 401.5 316 Z"
/>
<path fill="#fe4e01" d="M 339.6 345.5 L 329.5 345.5 Q 329 345.5 328.9 346 L 324.9 367.8 A 0.6 0.6 0 0 1 324.3 368.3 L 321.9 368.3 Q 321.2 368.3 321.3 367.5 L 325.8 343.6 Q 326.1 342.3 327.4 342.3 L 342.4 342.3 A 1.4 1.4 -84.9 0 1 343.8 343.9 Q 341.8 354.8 339.6 366.5 C 339.3 368.3 338 369.2 336.4 368.1 Q 335.9 367.9 336 367.4 L 339.9 345.9 Q 340 345.5 339.6 345.5 Z"
/>
<path fill="#fe4e01" d="M 371.4 360.1 A 1.2 1.2 0 0 0 369.1 360.5 L 368.2 367.6 A 0.7 0.6 1.6 0 1 367.6 368.1 L 365.1 368.3 Q 364.6 368.4 364.6 367.8 C 365 365 366.9 351.3 368.6 349.9 A 1.6 1.6 0 0 1 371 351.7 Q 370 354.3 370.1 357.1 A 1.1 1.1 0 0 0 372.3 357.4 C 373.9 353.2 377.3 349.3 382.1 349.4 C 393.8 349.5 390.5 371.5 376.9 368.3 C 372.7 367.4 372.9 363.2 371.4 360.1 Z M 378.5 366 A 7.2 4.9 107.4 0 0 385.3 360.6 A 7.2 4.9 107.4 0 0 382.8 352.2 A 7.2 4.9 107.4 0 0 376 357.6 A 7.2 4.9 107.4 0 0 378.5 366 Z"
/>
<path fill="#fe4e01" d="M 403.9 368.1 C 387.8 372.5 389.3 355 398.6 350.3 C 401.2 349.1 404.2 348.8 406.5 350.4 A 1 1 0 0 1 405.9 352.1 Q 395.8 351.4 395 361.5 Q 394.8 363.7 396.5 365.4 A 1.4 1.4 -22.8 0 0 397.5 365.8 L 403.5 365.8 A 1.2 1.2 0 0 1 403.9 368.1 Z"
/>
<path fill="#fe4e01" d="M 357.7 352.5 L 352.4 352.7 A 0.6 0.6 0 0 0 351.8 353.3 C 351.9 357.5 349.7 369.2 343.6 368.2 A 1.1 1.1 0 0 1 343.1 366.3 C 348.6 362.2 348.2 356.6 349.6 350.7 A 1.3 1.3 0 0 1 350.9 349.7 L 361.6 349.9 A 1 1 -83.2 0 1 362.6 351.2 L 359 367.9 Q 358.9 368.5 358.3 368.4 L 356.5 368.3 Q 355.9 368.2 356 367.6 L 358.3 353.2 A 0.6 0.6 -86.5 0 0 357.7 352.5 Z"
/>
</svg>
